<?xml version="1.0" encoding="utf-8"?>
<!-- Generator: Adobe Illustrator 28.0.0, SVG Export Plug-In . SVG Version: 6.00 Build 0)  -->
<svg version="1.1" id="Layer_1" xmlns="http://www.w3.org/2000/svg" xmlns:xlink="http://www.w3.org/1999/xlink" x="0px" y="0px"
	 viewBox="0 0 500 500" style="enable-background:new 0 0 500 500;" xml:space="preserve">
<style type="text/css">
	.st0{fill:#F76283;}
	.st1{fill:#FBB5A8;}
	.st2{fill:#F99298;}
	.st3{fill:#FA999B;}
	.st4{fill:#F54175;}
	.st5{fill:#FAA8A2;}
	.st6{fill:#F88391;}
	.st7{fill:#F54777;}
	.st8{fill:#FBADA4;}
	.st9{fill:#F76A87;}
	.st10{fill:#F65C80;}
	.st11{fill:#F6507B;}
	.st12{fill:#F8748B;}
	.st13{fill:#FAA3A0;}
	.st14{fill:#F8788D;}
	.st15{fill:#FEFEFE;}
</style>
<g>
	<path class="st0" d="M128.54,171.03c7.99-24.75,25.46-39.08,50.12-45.35c5.28-1.34,10.72-1.6,16.2-1.58
		c36.96,0.09,73.93-0.22,110.89,0.14c28.99,0.28,49.91,14.05,62.87,39.92c3.1,6.18,4.27,12.91,5.18,19.68
		c-15.25,0.01-30.51,0.02-45.76,0.04c-5.4-10.25-13.79-14.46-25.45-14.35c-34.94,0.36-69.89,0.2-104.84,0.06
		c-6.01-0.02-11.73,0.65-17.18,3.2c-2.74-1.69-5.78-1.73-8.88-1.72C157.32,171.1,142.93,171.05,128.54,171.03z"/>
	<path class="st1" d="M389.37,455.59c-15.51,11.97-33.16,19.95-51.24,26.99c-31.67,12.34-64.65,18.09-98.54,16.74
		c-50.49-2.01-96.3-18.09-137.05-48.16c-0.93-0.69-1.63-1.69-2.44-2.55c2.71-1.84,5.78-1.67,8.85-1.67
		c23.06,0.02,46.11,0,69.17,0.03c3.3,0,6.6,0.14,9.58-1.66c10.49,1.22,20.52,4.66,30.99,6.21c19.92,2.96,39.7,3.37,59.55-0.13
		c0.91-0.16,1.88,0.01,2.82,0.02c1.62,4.83,5.73,4.05,9.38,4.06C323.4,455.53,356.39,455.55,389.37,455.59z"/>
	<path class="st2" d="M373.38,317.55c-1.48,12.64-6.62,23.57-15.37,32.8c-72.18,0-144.35,0-216.53-0.01
		c-11.17-12.07-16.43-26.43-16.66-42.76c15.02,0,30.04,0,45.07,0c3.49,15.48,10.84,21.34,26.83,21.35
		c34.48,0.01,68.96-0.34,103.42,0.19c11.95,0.18,21.22-3.04,27.63-13.29c4.31,2.67,9.12,3.16,14.03,3.15
		C352.34,318.95,362.91,319.4,373.38,317.55z"/>
	<path class="st3" d="M141.47,350.34c72.18,0,144.35,0,216.53,0.01c-12.73,15.66-29.57,23.64-49.36,23.92
		c-39.27,0.55-78.55,0.55-117.82,0C171.03,373.98,154.18,366.02,141.47,350.34z"/>
	<path class="st4" d="M232.61,36.03c-6.42-6.78-7.23-14.72-3.85-22.92c3.4-8.25,9.92-13.79,18.94-13.88
		c44.34-0.46,85.94,10.01,124.35,32.45c-3.07,5.27-8.33,4.27-13.03,4.28C316.89,36.06,274.75,36.03,232.61,36.03z"/>
	<path class="st5" d="M187.69,445.31c-2.98,1.8-6.27,1.66-9.58,1.66c-23.06-0.03-46.11,0-69.17-0.03c-3.07,0-6.14-0.17-8.85,1.67
		c-20.19-13.94-36.94-31.28-50.85-51.44c16.1,0,32.2-0.01,48.29,0.02c3.09,0.01,6.17,0.09,8.94-1.6
		c8.06,5.39,14.36,12.86,22.34,18.42c17.25,12.02,34.68,23.54,55.33,29.03C185.44,443.39,186.51,444.54,187.69,445.31z"/>
	<path class="st6" d="M373.38,317.55c-10.46,1.85-21.03,1.4-31.58,1.43c-4.91,0.01-9.71-0.48-14.03-3.15
		c1.99-6.2,1.6-12.59,1.62-18.96c0.05-19.18,0.13-38.36,0.19-57.53c15.02,0,30.05,0,45.07,0c0.06,22.39,0.19,44.78,0.12,67.16
		C374.76,310.18,373.86,313.86,373.38,317.55z"/>
	<path class="st7" d="M232.61,36.03c42.14-0.01,84.28,0.02,126.41-0.07c4.7-0.01,9.96,0.99,13.03-4.28
		c16.88,8.25,31.06,20.28,45.19,32.36c-7.62,1.54-15.3,2.01-23.08,1.89c-14.11-0.21-28.23-0.1-42.34-0.02
		c-2.46,0.01-5.29-0.91-7.05,1.9c-30.26-14.83-62.02-23.37-95.92-23.37C242.26,44.44,236.47,41.83,232.61,36.03z"/>
	<path class="st8" d="M389.37,455.59c-32.99-0.03-65.97-0.05-98.96-0.12c-3.65-0.01-7.76,0.77-9.38-4.06
		c28.4-4.63,54.59-15.02,78.97-30.17c1.59-0.99,3.25-1.87,4.88-2.8c1.38,4.97,5.47,4.31,9.15,4.33c18.34,0.05,36.68,0.05,55.02,0.06
		C417.64,435.94,404.11,446.49,389.37,455.59z"/>
	<path class="st9" d="M480.1,152.61c8.58,18.03,13.52,37.1,16.25,56.8c-15.23,0.01-30.45,0.02-45.68,0.03
		c-3.85-19.32-10.98-37.51-19.12-55.34c5.29-1.15,10.61-1.64,16.05-1.54C458.43,152.74,469.27,152.61,480.1,152.61z"/>
	<path class="st10" d="M480.1,152.61c-10.83,0-21.67,0.13-32.5-0.05c-5.44-0.09-10.76,0.39-16.05,1.54
		c-10.01-17.45-21.8-33.59-35.43-48.39c3.85-1.21,7.77-1.53,11.81-1.49c12.25,0.12,24.51,0.09,36.76,0.01
		c2.47-0.02,5.28,0.89,7.18-1.72C463.99,117.69,473.24,134.48,480.1,152.61z"/>
	<path class="st3" d="M106.48,395.59c-2.77,1.69-5.84,1.61-8.94,1.6c-16.1-0.04-32.2-0.02-48.29-0.02
		c-11.3-14.33-20.78-29.72-27.34-46.82c4.04-1.31,8.18-1.6,12.43-1.56c12.17,0.1,24.34-0.02,36.51-0.05
		c8.4,12.41,16.44,25.04,26.16,36.55C100.04,388.89,103.96,391.59,106.48,395.59z"/>
	<path class="st11" d="M451.87,102.51c-1.9,2.6-4.71,1.7-7.18,1.72c-12.25,0.08-24.51,0.11-36.76-0.01
		c-4.04-0.04-7.96,0.28-11.81,1.49c-15.52-14.79-32.67-27.38-51.34-37.9c1.75-2.81,4.59-1.89,7.05-1.9
		c14.11-0.07,28.23-0.19,42.34,0.02c7.78,0.12,15.46-0.36,23.08-1.89C430.78,75.08,441.75,88.42,451.87,102.51z"/>
	<path class="st12" d="M374.65,239.33c-15.02,0-30.05,0-45.07,0c-0.07-3.99-0.06-7.98-0.22-11.96c-0.59-14.49,1.35-29.06-1.3-43.49
		c15.25-0.01,30.51-0.02,45.76-0.04c2.22,5.93,0.92,12.07,1,18.11C374.98,214.41,374.73,226.87,374.65,239.33z"/>
	<path class="st6" d="M169.88,307.58c-15.02,0-30.05,0-45.07,0c0-18.48,0-36.96,0-55.45c15.02,0,30.04,0,45.06,0
		C169.87,270.61,169.88,289.1,169.88,307.58z"/>
	<path class="st13" d="M429.05,422.83c-18.34-0.02-36.68-0.01-55.02-0.06c-3.68-0.01-7.77,0.65-9.15-4.33
		c14.52-10.79,28.24-22.48,40.67-35.65c3.66,0.94,7.28,1.72,11.14,1.67c14.44-0.18,28.88-0.09,43.32-0.11
		C451.5,398.62,441.27,411.53,429.05,422.83z"/>
	<path class="st14" d="M450.67,209.45c15.23-0.01,30.45-0.02,45.68-0.03c3.58,17.4,4.37,34.95,3.06,52.63
		c-14.96,0.02-29.92,0.03-44.89,0.05C454.88,244.43,453.76,226.86,450.67,209.45z"/>
	<path class="st2" d="M70.85,348.74c-12.17,0.03-24.34,0.15-36.51,0.05c-4.24-0.03-8.38,0.26-12.43,1.56
		c-8.09-15.78-13.39-32.49-16.63-49.88c15.34-0.05,30.68-0.09,46.02-0.14c4.39,13.21,8.82,26.4,14.93,38.95
		C67.77,342.44,69.31,345.59,70.85,348.74z"/>
	<path class="st6" d="M454.52,262.1c14.96-0.02,29.92-0.03,44.89-0.05c-0.53,16.47-2.44,32.73-7.62,48.47
		c-4.01-0.02-8.02,0.1-12.02-0.1c-11.24-0.56-22.59,1.48-33.73-1.4C450.01,293.58,452.47,277.88,454.52,262.1z"/>
	<path class="st7" d="M191.4,38.62c-0.63,10.39-7.8,16.78-18.25,21.13c-10.96,4.56-21.36,6.54-30.86-2.59
		c-10.81-10.37-8.59-28.44,4.53-35.68c5.12-2.83,10.68-5.14,16.31-6.71C177.51,10.76,191.65,22.1,191.4,38.62z"/>
	<path class="st9" d="M65.08,157.55c-0.81,7.37-4.38,16.13-10.36,23.54c-6.53,8.11-19.44,9.52-28.46,4.05
		c-8.96-5.44-13.26-16.64-9.74-26.41c1.91-5.31,4.05-10.63,6.88-15.49c5.26-9.03,15.94-12.81,25.77-9.77
		C59,136.5,65.1,144.84,65.08,157.55z"/>
	<path class="st11" d="M63.31,91.25c0.09-16.11,20.22-33.17,35.34-29.94c16.81,3.58,23.8,23.26,12.8,36.55
		c-3.29,3.98-7.06,7.66-11.04,10.95c-7.42,6.13-15.85,7.17-24.47,2.9C67.65,107.59,63.35,100.64,63.31,91.25z"/>
	<path class="st3" d="M460.03,384.35c-14.44,0.01-28.88-0.07-43.32,0.11c-3.86,0.05-7.49-0.72-11.14-1.67
		c9.16-12.42,18.23-24.9,25.99-38.28c3.85,1.2,7.77,1.59,11.81,1.54c12.26-0.13,24.52-0.05,36.78-0.04
		C475.42,359.82,468.29,372.38,460.03,384.35z"/>
	<path class="st9" d="M128.54,171.03c14.39,0.02,28.77,0.07,43.16,0.04c3.1-0.01,6.13,0.03,8.88,1.72
		c-7.93,6.36-11.39,14.53-10.58,24.74c0.39,4.89-0.07,9.85-0.14,14.78c-15.01,0-30.02,0-45.03,0
		C124.91,198.44,122.71,184.38,128.54,171.03z"/>
	<path class="st6" d="M51.3,300.34c-15.34,0.05-30.68,0.09-46.02,0.14C2.1,287.39,0,274.16-0.05,260.65
		c14.98,0.01,29.96,0.01,44.94,0.02C46.89,273.92,48.15,287.28,51.3,300.34z"/>
	<path class="st14" d="M124.83,212.31c15.01,0,30.02,0,45.03,0c0.01,13.27,0.01,26.55,0.02,39.82c-15.02,0-30.04,0-45.06,0
		C124.82,238.86,124.82,225.58,124.83,212.31z"/>
	<path class="st2" d="M480.14,346c-12.26,0-24.52-0.09-36.78,0.04c-4.05,0.04-7.96-0.34-11.81-1.54
		c4.83-11.83,9.66-23.65,14.5-35.48c11.14,2.88,22.49,0.84,33.73,1.4c4,0.2,8.01,0.07,12.02,0.1
		C490.4,323.16,484.49,334.33,480.14,346z"/>
	<path class="st14" d="M44.89,260.67c-14.98-0.01-29.96-0.01-44.94-0.02c-0.16-4.72-0.6-9.45-0.42-14.16
		c0.47-12.13,10.61-22.23,22.41-22.25c9.23-0.01,21.53,6.9,22.38,20.26C44.66,249.91,44.76,255.28,44.89,260.67z"/>
	<path class="st15" d="M249.71,192.41c-7.56,0-15.13-0.13-22.69,0.03c-12.83,0.27-22.62,9.97-22.79,22.35
		c-0.17,12.69,9.71,22.89,22.8,23.07c15.13,0.2,30.26,0.21,45.39,0c13.1-0.18,22.98-10.38,22.8-23.07
		c-0.17-12.31-10.06-22.09-22.82-22.35C264.85,192.28,257.28,192.41,249.71,192.41z"/>
	<path class="st12" d="M249.71,192.41c7.56,0,15.13-0.13,22.69,0.03c12.76,0.26,22.64,10.04,22.82,22.35
		c0.18,12.69-9.7,22.89-22.8,23.07c-15.13,0.21-30.26,0.2-45.39,0c-13.1-0.18-22.98-10.37-22.8-23.07
		c0.17-12.39,9.96-22.08,22.79-22.35C234.58,192.28,242.15,192.41,249.71,192.41z"/>
</g>
</svg>
